<mxfile host="app.diagrams.net" modified="2022-11-06T17:03:33.826Z" agent="5.0 (Windows NT 10.0; Win64; x64) AppleWebKit/537.36 (KHTML, like Gecko) Chrome/107.0.0.0 Safari/537.36" etag="1oaftSR8cp2NFcelSmGz" version="20.5.2" type="github">
  <diagram id="VqA4dyujuCNhahoRXD7N" name="第 1 页">
    <mxGraphModel dx="1038" dy="547" grid="1" gridSize="10" guides="1" tooltips="1" connect="1" arrows="1" fold="1" page="1" pageScale="1" pageWidth="827" pageHeight="1169" math="0" shadow="0">
      <root>
        <mxCell id="0" />
        <mxCell id="1" parent="0" />
        <mxCell id="t-EMjiM7KItSmiiItvfQ-8" value="" style="edgeStyle=orthogonalEdgeStyle;rounded=0;orthogonalLoop=1;jettySize=auto;html=1;" edge="1" parent="1" source="t-EMjiM7KItSmiiItvfQ-1" target="t-EMjiM7KItSmiiItvfQ-7">
          <mxGeometry relative="1" as="geometry" />
        </mxCell>
        <mxCell id="t-EMjiM7KItSmiiItvfQ-1" value="new AnnotationConfigApplicationContext()&lt;br&gt;&lt;br&gt;&lt;div&gt;1、this.reader = new AnnotatedBeanDefinitionReader(this);&lt;/div&gt;&lt;div&gt;&lt;span style=&quot;&quot;&gt;&lt;/span&gt;2、this.scanner = new ClassPathBeanDefinitionScanner(this);&lt;/div&gt;" style="rounded=1;whiteSpace=wrap;html=1;" vertex="1" parent="1">
          <mxGeometry x="30" y="90" width="370" height="60" as="geometry" />
        </mxCell>
        <mxCell id="t-EMjiM7KItSmiiItvfQ-2" value="beanFactory.setDependencyComparator(AnnotationAwareOrderComparator.INSTANCE)&lt;br&gt;beanFactory.setAutowireCandidateResolver(new ContextAnnotationAutowireCandidateResolver());&lt;br&gt;&lt;br&gt;注册&lt;br&gt;new RootBeanDefinition(ConfigurationClassPostProcessor.class)，扫描、配置类相关&lt;br&gt;new RootBeanDefinition(AutowiredAnnotationBeanPostProcessor.class)&lt;br&gt;new RootBeanDefinition(CommonAnnotationBeanPostProcessor.class)&lt;br&gt;new RootBeanDefinition(EventListenerMethodProcessor.class)&lt;br&gt;new RootBeanDefinition(DefaultEventListenerFactory.class)" style="shape=note;whiteSpace=wrap;html=1;backgroundOutline=1;darkOpacity=0.05;" vertex="1" parent="1">
          <mxGeometry x="414" y="40" width="576" height="130" as="geometry" />
        </mxCell>
        <mxCell id="t-EMjiM7KItSmiiItvfQ-3" value="Reader" style="text;html=1;align=center;verticalAlign=middle;resizable=0;points=[];autosize=1;strokeColor=none;fillColor=none;" vertex="1" parent="1">
          <mxGeometry x="580" y="5" width="60" height="30" as="geometry" />
        </mxCell>
        <mxCell id="t-EMjiM7KItSmiiItvfQ-4" value="registerDefaultFilters()，Compent加入扫描条件&lt;br&gt;&lt;div&gt;setEnvironment(environment);&lt;/div&gt;&lt;div&gt;&lt;span style=&quot;&quot;&gt;		&lt;/span&gt;setResourceLoader(resourceLoader);&lt;/div&gt;" style="shape=note;whiteSpace=wrap;html=1;backgroundOutline=1;darkOpacity=0.05;" vertex="1" parent="1">
          <mxGeometry x="450" y="210" width="270" height="100" as="geometry" />
        </mxCell>
        <mxCell id="t-EMjiM7KItSmiiItvfQ-6" value="&lt;span style=&quot;color: rgb(0, 0, 0); font-family: Helvetica; font-size: 12px; font-style: normal; font-variant-ligatures: normal; font-variant-caps: normal; font-weight: 400; letter-spacing: normal; orphans: 2; text-align: center; text-indent: 0px; text-transform: none; widows: 2; word-spacing: 0px; -webkit-text-stroke-width: 0px; background-color: rgb(248, 249, 250); text-decoration-thickness: initial; text-decoration-style: initial; text-decoration-color: initial; float: none; display: inline !important;&quot;&gt;Scanner&lt;/span&gt;" style="text;whiteSpace=wrap;html=1;" vertex="1" parent="1">
          <mxGeometry x="550" y="180" width="70" height="40" as="geometry" />
        </mxCell>
        <mxCell id="t-EMjiM7KItSmiiItvfQ-10" value="" style="edgeStyle=orthogonalEdgeStyle;rounded=0;orthogonalLoop=1;jettySize=auto;html=1;" edge="1" parent="1" source="t-EMjiM7KItSmiiItvfQ-7" target="t-EMjiM7KItSmiiItvfQ-9">
          <mxGeometry relative="1" as="geometry" />
        </mxCell>
        <mxCell id="t-EMjiM7KItSmiiItvfQ-7" value="annotationConfigApplicationContext.register(UserDAO.class)&lt;br&gt;生成bd，注册" style="rounded=1;whiteSpace=wrap;html=1;" vertex="1" parent="1">
          <mxGeometry x="30" y="240" width="370" height="60" as="geometry" />
        </mxCell>
        <mxCell id="t-EMjiM7KItSmiiItvfQ-9" value="annotationConfigApplicationContext.refresh()" style="rounded=1;whiteSpace=wrap;html=1;" vertex="1" parent="1">
          <mxGeometry x="30" y="350" width="370" height="60" as="geometry" />
        </mxCell>
        <mxCell id="t-EMjiM7KItSmiiItvfQ-13" value="" style="edgeStyle=orthogonalEdgeStyle;rounded=0;orthogonalLoop=1;jettySize=auto;html=1;" edge="1" parent="1" source="t-EMjiM7KItSmiiItvfQ-11" target="t-EMjiM7KItSmiiItvfQ-12">
          <mxGeometry relative="1" as="geometry" />
        </mxCell>
        <mxCell id="t-EMjiM7KItSmiiItvfQ-11" value="refresh()" style="rounded=1;whiteSpace=wrap;html=1;" vertex="1" parent="1">
          <mxGeometry x="1219.5" y="20" width="120" height="50" as="geometry" />
        </mxCell>
        <mxCell id="t-EMjiM7KItSmiiItvfQ-16" value="" style="edgeStyle=orthogonalEdgeStyle;rounded=0;orthogonalLoop=1;jettySize=auto;html=1;" edge="1" parent="1" source="t-EMjiM7KItSmiiItvfQ-12" target="t-EMjiM7KItSmiiItvfQ-15">
          <mxGeometry relative="1" as="geometry" />
        </mxCell>
        <mxCell id="t-EMjiM7KItSmiiItvfQ-12" value="prepareRefresh()&lt;br&gt;&lt;br&gt;1、initPropertySources()，比如springmvc可以把servletContext的一些参数设置到环境变量&lt;br&gt;校验启动必须环境变量" style="rounded=1;whiteSpace=wrap;html=1;" vertex="1" parent="1">
          <mxGeometry x="1140" y="110" width="279" height="70" as="geometry" />
        </mxCell>
        <mxCell id="t-EMjiM7KItSmiiItvfQ-19" value="" style="edgeStyle=orthogonalEdgeStyle;rounded=0;orthogonalLoop=1;jettySize=auto;html=1;" edge="1" parent="1" source="t-EMjiM7KItSmiiItvfQ-15" target="t-EMjiM7KItSmiiItvfQ-18">
          <mxGeometry relative="1" as="geometry" />
        </mxCell>
        <mxCell id="t-EMjiM7KItSmiiItvfQ-15" value="prepareBeanFactory(beanFactory)" style="rounded=1;whiteSpace=wrap;html=1;" vertex="1" parent="1">
          <mxGeometry x="1140" y="240" width="279" height="70" as="geometry" />
        </mxCell>
        <mxCell id="t-EMjiM7KItSmiiItvfQ-17" value="1、添加spring表达式解析器、默认类型转换器&lt;br&gt;2、添加一些BeanPostProcessor，&lt;br&gt;beanFactory.addBeanPostProcessor(new ApplicationContextAwareProcessor(this))&lt;br&gt;beanFactory.addBeanPostProcessor(new ApplicationListenerDetector(this));&lt;br&gt;&lt;br&gt;3、beanFactory.ignoreDependencyInterface，被添加的主要有EnvironmentAware、EmbeddedValueResolverAware、ResourceLoaderAware、ApplicationEventPublisherAware、MessageSourceAware、ApplicationContextAware。被加到这个集合的接口，如果是autowireMode为BY_TYPE，则不会调用对应的set方法，但是autowire注入会调用&lt;br&gt;&lt;br&gt;4、预先生成一些bean。BeanFactory、ResourceLoader、ApplicationEventPublisher、ApplicationContext&lt;br&gt;5、注册环境变量" style="shape=note;whiteSpace=wrap;html=1;backgroundOutline=1;darkOpacity=0.05;" vertex="1" parent="1">
          <mxGeometry x="1440" y="120" width="500" height="205" as="geometry" />
        </mxCell>
        <mxCell id="t-EMjiM7KItSmiiItvfQ-21" value="" style="edgeStyle=orthogonalEdgeStyle;rounded=0;orthogonalLoop=1;jettySize=auto;html=1;" edge="1" parent="1" source="t-EMjiM7KItSmiiItvfQ-18" target="t-EMjiM7KItSmiiItvfQ-20">
          <mxGeometry relative="1" as="geometry" />
        </mxCell>
        <mxCell id="t-EMjiM7KItSmiiItvfQ-18" value="postProcessBeanFactory" style="rounded=1;whiteSpace=wrap;html=1;" vertex="1" parent="1">
          <mxGeometry x="1140" y="360" width="279" height="70" as="geometry" />
        </mxCell>
        <mxCell id="t-EMjiM7KItSmiiItvfQ-23" value="" style="edgeStyle=orthogonalEdgeStyle;rounded=0;orthogonalLoop=1;jettySize=auto;html=1;" edge="1" parent="1" source="t-EMjiM7KItSmiiItvfQ-20" target="t-EMjiM7KItSmiiItvfQ-22">
          <mxGeometry relative="1" as="geometry" />
        </mxCell>
        <mxCell id="t-EMjiM7KItSmiiItvfQ-20" value="invokeBeanFactoryPostProcessors&lt;br&gt;完成配置类，扫描" style="rounded=1;whiteSpace=wrap;html=1;" vertex="1" parent="1">
          <mxGeometry x="1140" y="480" width="279" height="70" as="geometry" />
        </mxCell>
        <mxCell id="t-EMjiM7KItSmiiItvfQ-26" value="" style="edgeStyle=orthogonalEdgeStyle;rounded=0;orthogonalLoop=1;jettySize=auto;html=1;" edge="1" parent="1" source="t-EMjiM7KItSmiiItvfQ-22" target="t-EMjiM7KItSmiiItvfQ-25">
          <mxGeometry relative="1" as="geometry" />
        </mxCell>
        <mxCell id="t-EMjiM7KItSmiiItvfQ-22" value="registerBeanPostProcessors&lt;br&gt;注册之前扫描出来的BeanPostProcessors&lt;br&gt;&lt;br&gt;beanFactory.addBeanPostProcessor(new ApplicationListenerDetector(applicationContext));&lt;br&gt;只是为了将其移到最后" style="rounded=1;whiteSpace=wrap;html=1;" vertex="1" parent="1">
          <mxGeometry x="1140" y="590" width="279" height="90" as="geometry" />
        </mxCell>
        <mxCell id="t-EMjiM7KItSmiiItvfQ-24" value="List中是有序的&lt;br&gt;1、PriorityOrdered实现&lt;br&gt;2、Ordered&lt;br&gt;3、没有实现顺序接口的&lt;br&gt;4、MergedBeanDefinitionPostProcessor" style="shape=note;whiteSpace=wrap;html=1;backgroundOutline=1;darkOpacity=0.05;" vertex="1" parent="1">
          <mxGeometry x="1470" y="575" width="260" height="100" as="geometry" />
        </mxCell>
        <mxCell id="t-EMjiM7KItSmiiItvfQ-28" value="" style="edgeStyle=orthogonalEdgeStyle;rounded=0;orthogonalLoop=1;jettySize=auto;html=1;" edge="1" parent="1" source="t-EMjiM7KItSmiiItvfQ-25" target="t-EMjiM7KItSmiiItvfQ-27">
          <mxGeometry relative="1" as="geometry" />
        </mxCell>
        <mxCell id="t-EMjiM7KItSmiiItvfQ-25" value="initMessageSource();&lt;br&gt;国际化功能相关" style="rounded=1;whiteSpace=wrap;html=1;" vertex="1" parent="1">
          <mxGeometry x="1140" y="730" width="279" height="60" as="geometry" />
        </mxCell>
        <mxCell id="t-EMjiM7KItSmiiItvfQ-30" value="" style="edgeStyle=orthogonalEdgeStyle;rounded=0;orthogonalLoop=1;jettySize=auto;html=1;" edge="1" parent="1" source="t-EMjiM7KItSmiiItvfQ-27" target="t-EMjiM7KItSmiiItvfQ-29">
          <mxGeometry relative="1" as="geometry" />
        </mxCell>
        <mxCell id="t-EMjiM7KItSmiiItvfQ-27" value="initApplicationEventMulticaster();&lt;br&gt;&lt;br&gt;new SimpleApplicationEventMulticaster(beanFactory)，然后注册" style="rounded=1;whiteSpace=wrap;html=1;" vertex="1" parent="1">
          <mxGeometry x="1109.5" y="830" width="340" height="60" as="geometry" />
        </mxCell>
        <mxCell id="t-EMjiM7KItSmiiItvfQ-32" value="" style="edgeStyle=orthogonalEdgeStyle;rounded=0;orthogonalLoop=1;jettySize=auto;html=1;" edge="1" parent="1" source="t-EMjiM7KItSmiiItvfQ-29" target="t-EMjiM7KItSmiiItvfQ-31">
          <mxGeometry relative="1" as="geometry" />
        </mxCell>
        <mxCell id="t-EMjiM7KItSmiiItvfQ-29" value="onRefresh();" style="rounded=1;whiteSpace=wrap;html=1;" vertex="1" parent="1">
          <mxGeometry x="1109.5" y="940" width="340" height="50" as="geometry" />
        </mxCell>
        <mxCell id="t-EMjiM7KItSmiiItvfQ-34" value="" style="edgeStyle=orthogonalEdgeStyle;rounded=0;orthogonalLoop=1;jettySize=auto;html=1;" edge="1" parent="1" source="t-EMjiM7KItSmiiItvfQ-31" target="t-EMjiM7KItSmiiItvfQ-33">
          <mxGeometry relative="1" as="geometry" />
        </mxCell>
        <mxCell id="t-EMjiM7KItSmiiItvfQ-31" value="registerListeners();&lt;br&gt;&lt;br&gt;从BeanFactory中获取ApplicationListener类型的beanName，然后添加到ApplicationContext中的事件广播器applicationEventMulticaster中去，到这一步因为FactoryBean还没有调用getObject()方法生成Bean对象，所以这里要在根据类型找一下ApplicationListener，记录一下对应的beanName" style="rounded=1;whiteSpace=wrap;html=1;" vertex="1" parent="1">
          <mxGeometry x="1109.5" y="1030" width="340" height="100" as="geometry" />
        </mxCell>
        <mxCell id="t-EMjiM7KItSmiiItvfQ-37" value="" style="edgeStyle=orthogonalEdgeStyle;rounded=0;orthogonalLoop=1;jettySize=auto;html=1;" edge="1" parent="1" source="t-EMjiM7KItSmiiItvfQ-33" target="t-EMjiM7KItSmiiItvfQ-36">
          <mxGeometry relative="1" as="geometry" />
        </mxCell>
        <mxCell id="t-EMjiM7KItSmiiItvfQ-33" value="finishBeanFactoryInitialization(beanFactory);&lt;br&gt;完成BeanFactory的初始化，主要就是实例化非懒加载的单例Bean" style="rounded=1;whiteSpace=wrap;html=1;" vertex="1" parent="1">
          <mxGeometry x="1109.5" y="1180" width="340" height="70" as="geometry" />
        </mxCell>
        <mxCell id="t-EMjiM7KItSmiiItvfQ-36" value="finishRefresh();&lt;br&gt;&lt;br&gt;&lt;div&gt;1、设置ApplicationContext的lifecycleProcessor，默认情况下设置的是DefaultLifecycleProcessor&lt;/div&gt;&lt;div&gt;2、调用lifecycleProcessor的onRefresh()方法，如果是DefaultLifecycleProcessor，那么会获取所有类型为Lifecycle的Bean对象，然后调用它的start()方法，这就是ApplicationContext的生命周期扩展机制&lt;/div&gt;&lt;div&gt;3、发布ContextRefreshedEvent事件&lt;/div&gt;" style="rounded=1;whiteSpace=wrap;html=1;" vertex="1" parent="1">
          <mxGeometry x="1014.25" y="1300" width="530.5" height="160" as="geometry" />
        </mxCell>
      </root>
    </mxGraphModel>
  </diagram>
</mxfile>
